<svg width="587" height="665" viewBox="0 0 587 665" fill="none" xmlns="http://www.w3.org/2000/svg">
<rect width="587" height="665" fill="#CDFE00"/>
<circle cx="341.061" cy="107.055" r="21.0552" fill="url(#paint0_linear_48_1057)"/>
<ellipse cx="156.828" cy="316.73" rx="29.8282" ry="30.7055" fill="url(#paint1_linear_48_1057)"/>
<circle cx="282.282" cy="411.479" r="28.9509" fill="url(#paint2_linear_48_1057)"/>
<circle cx="362.116" cy="340.417" r="22.8098" fill="url(#paint3_linear_48_1057)"/>
<circle cx="359.484" cy="422.006" r="23.6871" fill="url(#paint4_linear_48_1057)"/>
<circle cx="203.325" cy="446.57" r="20.1779" fill="url(#paint5_linear_48_1057)"/>
<circle cx="264.736" cy="485.172" r="21.9325" fill="url(#paint6_linear_48_1057)"/>
<circle cx="332.288" cy="177.239" r="19.3006" fill="url(#paint7_linear_48_1057)"/>
<circle cx="170.865" cy="240.405" r="19.3006" fill="url(#paint8_linear_48_1057)"/>
<ellipse cx="219.994" cy="186.89" rx="21.0552" ry="21.9325" fill="url(#paint9_linear_48_1057)"/>
<ellipse cx="279.651" cy="220.227" rx="22.8098" ry="23.6871" fill="url(#paint10_linear_48_1057)"/>
<circle cx="221.748" cy="359.718" r="22.8098" fill="url(#paint11_linear_48_1057)"/>
<ellipse cx="233.154" cy="275.497" rx="25.4417" ry="26.319" fill="url(#paint12_linear_48_1057)"/>
<ellipse cx="288.423" cy="323.749" rx="24.5644" ry="25.4417" fill="url(#paint13_linear_48_1057)"/>
<circle cx="277.018" cy="139.515" r="16.6687" fill="url(#paint14_linear_48_1057)"/>
<ellipse cx="341.061" cy="265.847" rx="17.546" ry="18.4233" fill="url(#paint15_linear_48_1057)"/>
<ellipse cx="156.828" cy="392.178" rx="17.546" ry="18.4233" fill="url(#paint16_linear_48_1057)"/>
<ellipse cx="399.84" cy="136.883" rx="13.1595" ry="14.0368" fill="url(#paint17_linear_48_1057)"/>
<circle cx="328.779" cy="475.522" r="14.0368" fill="url(#paint18_linear_48_1057)"/>
<circle cx="381.417" cy="508.859" r="12.2822" fill="url(#paint19_linear_48_1057)"/>
<circle cx="374.399" cy="568.515" r="10.5276" fill="url(#paint20_linear_48_1057)"/>
<ellipse cx="318.251" cy="537.81" rx="15.7914" ry="16.6687" fill="url(#paint21_linear_48_1057)"/>
<defs>
<linearGradient id="paint0_linear_48_1057" x1="341.061" y1="86" x2="334.868" y2="126.872" gradientUnits="userSpaceOnUse">
<stop offset="1" stop-color="#0F1114"/>
</linearGradient>
<linearGradient id="paint1_linear_48_1057" x1="156.828" y1="286.025" x2="147.544" y2="345.55" gradientUnits="userSpaceOnUse">
<stop offset="1" stop-color="#0F1114"/>
</linearGradient>
<linearGradient id="paint2_linear_48_1057" x1="282.282" y1="382.528" x2="273.767" y2="438.726" gradientUnits="userSpaceOnUse">
<stop offset="1" stop-color="#0F1114"/>
</linearGradient>
<linearGradient id="paint3_linear_48_1057" x1="362.116" y1="317.607" x2="355.408" y2="361.885" gradientUnits="userSpaceOnUse">
<stop offset="1" stop-color="#0F1114"/>
</linearGradient>
<linearGradient id="paint4_linear_48_1057" x1="359.484" y1="398.319" x2="352.518" y2="444.3" gradientUnits="userSpaceOnUse">
<stop offset="1" stop-color="#0F1114"/>
</linearGradient>
<linearGradient id="paint5_linear_48_1057" x1="203.325" y1="426.393" x2="197.39" y2="465.561" gradientUnits="userSpaceOnUse">
<stop offset="1" stop-color="#0F1114"/>
</linearGradient>
<linearGradient id="paint6_linear_48_1057" x1="264.736" y1="463.239" x2="258.286" y2="505.814" gradientUnits="userSpaceOnUse">
<stop offset="1" stop-color="#0F1114"/>
</linearGradient>
<linearGradient id="paint7_linear_48_1057" x1="332.288" y1="157.938" x2="326.612" y2="195.404" gradientUnits="userSpaceOnUse">
<stop offset="1" stop-color="#0F1114"/>
</linearGradient>
<linearGradient id="paint8_linear_48_1057" x1="170.865" y1="221.104" x2="165.188" y2="258.57" gradientUnits="userSpaceOnUse">
<stop offset="1" stop-color="#0F1114"/>
</linearGradient>
<linearGradient id="paint9_linear_48_1057" x1="219.994" y1="164.957" x2="213.287" y2="207.451" gradientUnits="userSpaceOnUse">
<stop offset="1" stop-color="#0F1114"/>
</linearGradient>
<linearGradient id="paint10_linear_48_1057" x1="279.651" y1="196.54" x2="272.429" y2="242.44" gradientUnits="userSpaceOnUse">
<stop offset="1" stop-color="#0F1114"/>
</linearGradient>
<linearGradient id="paint11_linear_48_1057" x1="221.748" y1="336.908" x2="215.04" y2="381.186" gradientUnits="userSpaceOnUse">
<stop offset="1" stop-color="#0F1114"/>
</linearGradient>
<linearGradient id="paint12_linear_48_1057" x1="233.154" y1="249.178" x2="225.158" y2="300.188" gradientUnits="userSpaceOnUse">
<stop offset="1" stop-color="#0F1114"/>
</linearGradient>
<linearGradient id="paint13_linear_48_1057" x1="288.423" y1="298.307" x2="280.686" y2="347.613" gradientUnits="userSpaceOnUse">
<stop offset="1" stop-color="#0F1114"/>
</linearGradient>
<linearGradient id="paint14_linear_48_1057" x1="277.018" y1="122.847" x2="272.116" y2="155.204" gradientUnits="userSpaceOnUse">
<stop offset="1" stop-color="#0F1114"/>
</linearGradient>
<linearGradient id="paint15_linear_48_1057" x1="341.061" y1="247.423" x2="335.385" y2="283.104" gradientUnits="userSpaceOnUse">
<stop offset="1" stop-color="#0F1114"/>
</linearGradient>
<linearGradient id="paint16_linear_48_1057" x1="156.828" y1="373.755" x2="151.152" y2="409.435" gradientUnits="userSpaceOnUse">
<stop offset="1" stop-color="#0F1114"/>
</linearGradient>
<linearGradient id="paint17_linear_48_1057" x1="399.84" y1="122.847" x2="395.45" y2="150.011" gradientUnits="userSpaceOnUse">
<stop offset="1" stop-color="#0F1114"/>
</linearGradient>
<linearGradient id="paint18_linear_48_1057" x1="328.779" y1="461.485" x2="324.651" y2="488.733" gradientUnits="userSpaceOnUse">
<stop offset="1" stop-color="#0F1114"/>
</linearGradient>
<linearGradient id="paint19_linear_48_1057" x1="381.417" y1="496.577" x2="377.805" y2="520.419" gradientUnits="userSpaceOnUse">
<stop offset="1" stop-color="#0F1114"/>
</linearGradient>
<linearGradient id="paint20_linear_48_1057" x1="374.399" y1="557.988" x2="371.302" y2="578.424" gradientUnits="userSpaceOnUse">
<stop offset="1" stop-color="#0F1114"/>
</linearGradient>
<linearGradient id="paint21_linear_48_1057" x1="318.251" y1="521.141" x2="313.09" y2="553.415" gradientUnits="userSpaceOnUse">
<stop offset="1" stop-color="#0F1114"/>
</linearGradient>
</defs>
</svg>
