<svg width="587" height="665" viewBox="0 0 587 665" fill="none" xmlns="http://www.w3.org/2000/svg">
<rect width="587" height="665" fill="black"/>
<circle cx="356.768" cy="129.961" r="18.9608" fill="url(#paint0_linear_70_403)"/>
<ellipse cx="190.861" cy="318.779" rx="26.8612" ry="27.6512" fill="url(#paint1_linear_70_403)"/>
<circle cx="303.836" cy="404.103" r="26.0712" fill="url(#paint2_linear_70_403)"/>
<circle cx="375.73" cy="340.111" r="20.5409" fill="url(#paint3_linear_70_403)"/>
<circle cx="373.359" cy="413.583" r="21.331" fill="url(#paint4_linear_70_403)"/>
<circle cx="232.733" cy="435.704" r="18.1708" fill="url(#paint5_linear_70_403)"/>
<circle cx="288.035" cy="470.466" r="19.7509" fill="url(#paint6_linear_70_403)"/>
<circle cx="348.869" cy="193.163" r="17.3808" fill="url(#paint7_linear_70_403)"/>
<circle cx="203.502" cy="250.046" r="17.3808" fill="url(#paint8_linear_70_403)"/>
<ellipse cx="247.744" cy="201.854" rx="18.9608" ry="19.7509" fill="url(#paint9_linear_70_403)"/>
<ellipse cx="301.467" cy="231.875" rx="20.5409" ry="21.331" fill="url(#paint10_linear_70_403)"/>
<circle cx="249.324" cy="357.491" r="20.5409" fill="url(#paint11_linear_70_403)"/>
<ellipse cx="259.595" cy="281.648" rx="22.911" ry="23.7011" fill="url(#paint12_linear_70_403)"/>
<ellipse cx="309.367" cy="325.1" rx="22.121" ry="22.911" fill="url(#paint13_linear_70_403)"/>
<circle cx="299.097" cy="159.192" r="15.0107" fill="url(#paint14_linear_70_403)"/>
<ellipse cx="356.768" cy="272.957" rx="15.8007" ry="16.5907" fill="url(#paint15_linear_70_403)"/>
<ellipse cx="190.862" cy="386.722" rx="15.8007" ry="16.5907" fill="url(#paint16_linear_70_403)"/>
<ellipse cx="409.701" cy="156.822" rx="11.8505" ry="12.6406" fill="url(#paint17_linear_70_403)"/>
<circle cx="345.708" cy="461.776" r="12.6406" fill="url(#paint18_linear_70_403)"/>
<circle cx="393.11" cy="491.797" r="11.0605" fill="url(#paint19_linear_70_403)"/>
<circle cx="386.79" cy="545.519" r="9.48042" fill="url(#paint20_linear_70_403)"/>
<ellipse cx="336.227" cy="517.868" rx="14.2206" ry="15.0107" fill="url(#paint21_linear_70_403)"/>
<defs>
<linearGradient id="paint0_linear_70_403" x1="356.768" y1="111" x2="351.192" y2="147.806" gradientUnits="userSpaceOnUse">
<stop offset="1" stop-color="white"/>
</linearGradient>
<linearGradient id="paint1_linear_70_403" x1="190.861" y1="291.128" x2="182.5" y2="344.732" gradientUnits="userSpaceOnUse">
<stop offset="1" stop-color="white"/>
</linearGradient>
<linearGradient id="paint2_linear_70_403" x1="303.836" y1="378.032" x2="296.168" y2="428.64" gradientUnits="userSpaceOnUse">
<stop offset="1" stop-color="white"/>
</linearGradient>
<linearGradient id="paint3_linear_70_403" x1="375.73" y1="319.57" x2="369.688" y2="359.443" gradientUnits="userSpaceOnUse">
<stop offset="1" stop-color="white"/>
</linearGradient>
<linearGradient id="paint4_linear_70_403" x1="373.359" y1="392.252" x2="367.085" y2="433.66" gradientUnits="userSpaceOnUse">
<stop offset="1" stop-color="white"/>
</linearGradient>
<linearGradient id="paint5_linear_70_403" x1="232.733" y1="417.534" x2="227.389" y2="452.806" gradientUnits="userSpaceOnUse">
<stop offset="1" stop-color="white"/>
</linearGradient>
<linearGradient id="paint6_linear_70_403" x1="288.035" y1="450.715" x2="282.226" y2="489.055" gradientUnits="userSpaceOnUse">
<stop offset="1" stop-color="white"/>
</linearGradient>
<linearGradient id="paint7_linear_70_403" x1="348.869" y1="175.783" x2="343.757" y2="209.522" gradientUnits="userSpaceOnUse">
<stop offset="1" stop-color="white"/>
</linearGradient>
<linearGradient id="paint8_linear_70_403" x1="203.502" y1="232.666" x2="198.39" y2="266.405" gradientUnits="userSpaceOnUse">
<stop offset="1" stop-color="white"/>
</linearGradient>
<linearGradient id="paint9_linear_70_403" x1="247.744" y1="182.104" x2="241.704" y2="220.37" gradientUnits="userSpaceOnUse">
<stop offset="1" stop-color="white"/>
</linearGradient>
<linearGradient id="paint10_linear_70_403" x1="301.467" y1="210.544" x2="294.963" y2="251.879" gradientUnits="userSpaceOnUse">
<stop offset="1" stop-color="white"/>
</linearGradient>
<linearGradient id="paint11_linear_70_403" x1="249.324" y1="336.95" x2="243.283" y2="376.824" gradientUnits="userSpaceOnUse">
<stop offset="1" stop-color="white"/>
</linearGradient>
<linearGradient id="paint12_linear_70_403" x1="259.595" y1="257.947" x2="252.395" y2="303.882" gradientUnits="userSpaceOnUse">
<stop offset="1" stop-color="white"/>
</linearGradient>
<linearGradient id="paint13_linear_70_403" x1="309.367" y1="302.189" x2="302.399" y2="346.591" gradientUnits="userSpaceOnUse">
<stop offset="1" stop-color="white"/>
</linearGradient>
<linearGradient id="paint14_linear_70_403" x1="299.097" y1="144.181" x2="294.682" y2="173.32" gradientUnits="userSpaceOnUse">
<stop offset="1" stop-color="white"/>
</linearGradient>
<linearGradient id="paint15_linear_70_403" x1="356.768" y1="256.366" x2="351.657" y2="288.498" gradientUnits="userSpaceOnUse">
<stop offset="1" stop-color="white"/>
</linearGradient>
<linearGradient id="paint16_linear_70_403" x1="190.862" y1="370.132" x2="185.75" y2="402.263" gradientUnits="userSpaceOnUse">
<stop offset="1" stop-color="white"/>
</linearGradient>
<linearGradient id="paint17_linear_70_403" x1="409.701" y1="144.181" x2="405.748" y2="168.643" gradientUnits="userSpaceOnUse">
<stop offset="1" stop-color="white"/>
</linearGradient>
<linearGradient id="paint18_linear_70_403" x1="345.708" y1="449.135" x2="341.99" y2="473.673" gradientUnits="userSpaceOnUse">
<stop offset="1" stop-color="white"/>
</linearGradient>
<linearGradient id="paint19_linear_70_403" x1="393.11" y1="480.737" x2="389.857" y2="502.207" gradientUnits="userSpaceOnUse">
<stop offset="1" stop-color="white"/>
</linearGradient>
<linearGradient id="paint20_linear_70_403" x1="386.79" y1="536.039" x2="384.002" y2="554.442" gradientUnits="userSpaceOnUse">
<stop offset="1" stop-color="white"/>
</linearGradient>
<linearGradient id="paint21_linear_70_403" x1="336.227" y1="502.857" x2="331.579" y2="531.921" gradientUnits="userSpaceOnUse">
<stop offset="1" stop-color="white"/>
</linearGradient>
</defs>
</svg>
